<svg width="100" height="100" viewBox="0 0 100 100" sodipodi:docname="logo.svg"
  xmlns:inkscape="http://www.inkscape.org/namespaces/inkscape"
  xmlns:sodipodi="http://sodipodi.sourceforge.net/DTD/sodipodi-0.dtd" xmlns="http://www.w3.org/2000/svg"
  xmlns:svg="http://www.w3.org/2000/svg">
  <path id="path248"
    d="M 61.743924 0.071254466 C 60.350425 -0.1512277 41.426541 24.605952 44.389973 40.320297 C 45.309971 45.090287 54.200422 51.570137 56.000418 56.140127 C 62.000406 71.000099 52.939735 86.349791 52.939735 86.349791 C 52.939735 86.349791 79.830235 66.16033 74.130247 49.350364 C 72.180251 43.620374 59.269954 37.889913 56.92996 32.349923 C 54.379964 26.279935 58.779881 12.12994 59.339881 8.5899479 C 59.899879 5.0499549 58.640113 7.3297904 61.570107 0.97980314 C 61.844795 0.38449182 61.888079 0.094269861 61.743924 0.071254466 z M 91.529542 17.326122 C 90.302257 17.438695 76.332898 33.857973 78.000396 43.60014 C 78.510394 46.600134 83.930085 50.72006 85.000083 53.600054 C 88.490075 62.840036 79.46986 75.579878 79.46986 75.579878 C 79.46986 75.579878 99.560218 60.049578 96.240224 49.5796 C 95.110226 46.019606 87.239622 42.30991 85.819624 38.839916 C 84.319628 35.049924 89.579926 21.710007 91.469924 17.840015 C 91.64711 17.477202 91.656502 17.314477 91.529542 17.326122 z M 30.707162 29.39588 C 29.752664 29.563554 21.561631 45.316175 24.860375 53.209596 C 25.860373 55.649592 31.259987 58.060127 32.729985 60.210123 C 37.519975 67.370109 33.320289 76.569877 33.320289 76.569877 C 33.320289 76.569877 46.320195 62.829577 41.450205 54.639595 C 39.800207 51.849599 32.400136 50.289903 30.55014 47.639907 C 28.550144 44.739913 29.929989 33.520301 30.749987 29.870307 C 30.826862 29.528121 30.805904 29.378535 30.707162 29.39588 z M 53.462024 70.80286 C 49.479064 71.111839 45.614753 71.676858 41.905319 72.47637 C 41.335185 73.353905 40.768462 74.160447 40.216694 74.912322 C 44.326439 73.908973 48.660279 73.210276 53.148818 72.836599 C 53.270821 72.175375 53.375561 71.495844 53.462024 70.80286 z M 73.129332 71.399883 C 72.709857 72.027315 72.279685 72.642517 71.839562 73.246369 C 73.110358 73.410462 74.366737 73.599244 75.606429 73.816521 A 4.2996619 4.2996619 0 0 1 75.960779 73.096064 C 75.960779 73.096064 76.269907 72.628762 76.675359 71.980111 C 75.505976 71.765021 74.325828 71.568536 73.129332 71.399883 z M 87.14802 74.625986 C 86.54317 75.189633 85.964593 75.715089 85.435044 76.183618 C 91.650679 78.11185 97.268173 80.729391 102.03915 83.888648 C 112.60584 90.885723 119.00936 100.43439 119.00936 110.90076 C 119.00936 112.81046 118.79405 114.6889 118.38127 116.52755 C 117.20057 120.12069 115.1868 124.72571 111.75944 129.38662 C 109.13208 132.50947 105.86301 135.37994 102.03915 137.91203 C 91.472466 144.9091 76.782152 149.27896 60.538963 149.27896 C 44.295778 149.27896 29.60798 144.9091 19.041297 137.91203 C 8.4746105 130.91493 2.0702456 121.36713 2.0702456 110.90076 C 2.0702456 100.43439 8.4746105 90.885723 19.041297 83.888648 C 22.176208 81.812764 25.681122 79.974488 29.474492 78.406288 A 4.2996619 4.2996619 0 0 1 29.065561 76.403618 C 25.022839 78.050017 21.286008 80.002317 17.93542 82.221016 C 7.2353642 89.306408 0.4002253 99.144342 0.085209457 110.10893 C -0.061494407 111.36731 -0.036897523 113.20749 0.3900183 115.93976 C 0.96001659 119.55976 3.7800173 131.88974 5.1200134 133.86974 C 21.329965 157.99968 39.200413 160.24971 66.000332 160.26971 C 91.400254 160.26971 100.9997 153.5997 112.33967 140.57973 C 115.90084 136.49538 118.37181 126.18752 119.60806 119.58151 C 120.52199 116.78886 121.00951 113.88539 121.00951 110.90076 C 121.00951 99.618237 114.10133 89.476642 103.14419 82.221016 C 98.487863 79.137683 93.086892 76.568858 87.14802 74.625986 z M 52.323399 76.333923 C 49.62567 76.642501 44.840048 78.07041 44.840048 78.07041 C 44.840048 78.07041 32.619983 81.029953 31.629986 82.519947 C 30.639989 84.009944 38.619906 90.35971 40.3099 90.51971 L 46.740275 91.220015 C 46.740275 91.220015 45.070203 93.109721 45.7402 100.5297 C 46.410197 107.94967 44.589755 112.80984 50.409737 112.64984 C 56.229719 112.48984 60.960421 109.85961 65.130409 109.20961 C 69.300397 108.55961 64.320414 97.250386 65.790408 95.670392 A 31.93 31.93 0 0 0 69.260023 89.820245 A 30.77 30.77 0 0 0 66.540255 87.370019 C 66.290255 87.330019 62.659726 86.910397 63.719723 84.890403 C 64.323779 83.739279 65.262243 82.434586 65.344531 80.933766 C 60.175617 86.308556 55.521793 89.787497 55.521793 89.787497 A 4.2996619 4.2996619 0 0 1 49.238364 84.164068 C 49.238364 84.164068 51.009228 80.990672 52.323399 76.333923 z M 83.749779 81.848192 C 81.26563 81.846058 78.59907 82.599958 76.190016 84.78964 C 68.740037 91.559619 73.340406 99.760018 77.120397 102.11 C 80.900385 104.46 82.739788 103.87023 86.169776 103.46023 A 7.49 7.49 0 0 1 91.59 104.69962 A 8.08 8.08 0 0 1 93.59015 101.06039 A 5.84 5.84 0 0 1 96.869994 99.600159 A 5.36 5.36 0 0 1 94.729615 95.000316 C 94.999615 91.000328 94.729685 86.57971 92.099694 84.579716 C 90.62126 83.469407 87.380456 81.851312 83.749779 81.848192 z M 29.499683 91.319938 A 10.73 5.54 0 0 0 18.770076 96.860238 A 10.73 5.54 0 0 0 29.499683 102.3997 A 10.73 5.54 0 0 0 40.23013 96.860238 A 10.73 5.54 0 0 0 29.499683 91.319938 z M 97.478772 101.15443 C 96.913258 101.15443 96.105625 101.41532 95.069691 102.3997 A 3.75 3.75 0 0 0 93.849616 105.88023 L 97.460299 109.18022 A 3.13 3.13 0 0 1 98.139611 110.4003 C 98.259611 110.9803 97.569688 112.2103 98.039688 112.7103 C 98.509685 113.2103 98.709763 113.47037 99.039763 113.60037 A 2.53 2.53 0 0 0 101.37999 113.13014 C 102.29999 112.42017 102.26999 112.6003 103.13999 110.7303 A 3.62 3.62 0 0 1 104.60022 109.38007 A 3.64 3.64 0 0 0 107.06975 107.6503 A 2.14 2.14 0 0 0 107.61975 105.50992 C 107.42975 105.19992 107.03991 105.08977 106.42991 104.71977 C 105.81991 104.34977 104.66983 104.79031 103.99983 104.79031 A 4.09 4.09 0 0 1 102.53961 104.31 L 98.450298 101.49031 C 98.450298 101.49031 98.119691 101.15443 97.478772 101.15443 z M 25.590068 107.86023 A 16.959999 8.75 0 0 0 8.6299334 116.60984 A 16.959999 8.75 0 0 0 25.590068 125.36028 A 16.959999 8.75 0 0 0 42.550203 116.60984 A 16.959999 8.75 0 0 0 25.590068 107.86023 z M 69.659717 110.49015 A 16.959999 8.75 0 0 0 52.700422 119.23976 A 16.959999 8.75 0 0 0 69.659717 127.99021 A 16.959999 8.75 0 0 0 86.619852 119.23976 A 16.959999 8.75 0 0 0 69.659717 110.49015 z M 107.62143 115.34442 C 106.75466 115.36073 104.52561 116.29054 102.25999 116.57961 C 99.359996 116.94961 96.77022 115.15037 94.260226 115.58037 C 91.750235 116.01037 89.180079 123.29968 89.180079 123.29968 C 89.180079 123.29968 93.429694 124.49029 94.959691 124.15029 C 96.489685 123.81029 101.26014 124.15029 102.28014 124.15029 C 103.30014 124.15029 106.19983 124.2099 106.19983 124.2099 L 108.00014 124.2099 L 109.40998 117.50999 L 108.00014 115.58037 C 108.00014 115.40756 107.86413 115.33985 107.62143 115.34442 z M 42.540127 124.9396 A 16.959999 8.75 0 0 0 25.579992 133.69005 A 16.959999 8.75 0 0 0 42.540127 142.43966 A 16.959999 8.75 0 0 0 59.500262 133.69005 A 16.959999 8.75 0 0 0 42.540127 124.9396 z M 87.550233 127.21013 A 10.73 5.54 0 0 0 76.819786 132.74959 A 10.73 5.54 0 0 0 87.550233 138.28989 A 10.73 5.54 0 0 0 98.27984 132.74959 A 10.73 5.54 0 0 0 87.550233 127.21013 z "
    transform="matrix(0.61541996,0,0,0.61541996,12.867702,0.66514922)" inkscape:label="logo" />
  <style>
    path {
      fill: #000;
    }

    @media (prefers-color-scheme: dark) {
      path {
        fill: #FFF;
      }
    }
  </style>
</svg>